<svg xmlns="http://www.w3.org/2000/svg" x="0px" y="0px" viewBox="0 0 108.54 70" style="vertical-align: middle; max-width: 100%; width: 100%;" width="100%"><g>
	<path d="M51.89,21C50.09,11.16,41.9,2.85,32.2,0.65C21.71-1.74,10.86,2.62,4.73,11.39   c-5.67,8.1-6.4,19.38-1.31,27.94c5.49,9.23,16.5,14.16,27.06,12.52c-2.31,2.91-4.5,5.9-6.74,8.85c-1.41,1.86-5.28,5.28-3.75,7.88   c2.03,3.45,5.06-0.21,6.63-1.86c2.61-2.73,5.32-5.37,7.89-8.14C43.89,48.49,54.59,35.69,51.89,21z" fill="rgba(161,142,214,0.5)"></path>
	<path d="M108.11,21c-1.8-9.84-9.99-18.14-19.69-20.35C77.94-1.74,67.09,2.62,60.95,11.39   c-5.67,8.1-6.4,19.38-1.31,27.94c5.49,9.23,16.5,14.16,27.06,12.52c-2.31,2.91-4.5,5.9-6.74,8.85c-1.41,1.86-5.28,5.28-3.75,7.88   c2.03,3.45,5.06-0.21,6.63-1.86c2.61-2.73,5.32-5.37,7.89-8.14C100.11,48.49,110.81,35.69,108.11,21z" fill="rgba(161,142,214,0.5)"></path>
</g></svg>